<svg xmlns="http://www.w3.org/2000/svg" viewBox="0 0 303 335.17"><title>avatar</title><path d="M87.5,237.06l-22,12s-56,30-56,44,50,41,131,43,132-23,144-31,12-10,12-10-31-29-43-34l-12-5-1-8-14-10s-3-6-13-10-21-7-21-7l-9-1Z" transform="translate(-1 -1)" style="fill:#e4a18b"/><path d="M134.83,295.73s34-32,47.67-52.67,10.33-25.67,10.33-25.67l-0.33-8.67s5,5.33,5.33,9.67,1,4.67,1,4.67,9.67,4.33,10.67,13-5.67,36-14,55.67-11.33,21-11.33,21-12-23-25.33-23.67-24,6.67-24,6.67h0Z" transform="translate(-1 -1)" style="fill:#bfdff8"/><path d="M192.5,297.06s-4-15-14-22-11-6-11-6l-6,4s16,5,19,11l3,6Z" transform="translate(-1 -1)" style="fill:#fff"/><path d="M92.5,222.73s-5.67,9.33-9,36.33a311.25,311.25,0,0,0-1.67,52s13.67-16.33,22.67-21,14.33-4,14.33-4S95.5,263.73,94.5,250.73s0.67-16.67.67-16.67L92.5,222.73h0Z" transform="translate(-1 -1)" style="fill:#bfdff8"/><path d="M92.17,231.73s-1.33,20.33,3.33,35,10.33,21.67,10.33,21.67l-3,1.67s-13-20.33-13.67-37-0.67-20-.67-20l3.67-1.33h0Z" transform="translate(-1 -1)" style="fill:#fff"/><path d="M87.5,243.06s-2,18.33,1.33,34,6.33,19.67,6.33,19.67l-4,3.67a92.94,92.94,0,0,1-5.33-26.33c-0.67-14.33-.67-15-0.67-15l2.33-16h0Z" transform="translate(-1 -1)" style="fill:#fff"/><path d="M102.83,273.39L84.16,291.72l-1,9,23-24Z" transform="translate(-1 -1)" style="fill:#fff"/><path d="M95.83,259.39L84.5,273.06l-0.67,8,14-17.67Z" transform="translate(-1 -1)" style="fill:#fff"/><path d="M201.5,232.06s-13,44-20,56-5,12-5,12l1,2s20-34,25-51S201.5,232.06,201.5,232.06Z" transform="translate(-1 -1)" style="fill:#fff"/><path d="M65.5,104.06s-4.67-.33-4,4.33a68.56,68.56,0,0,1,.33,11s-4.33,14.33-4,21a22.41,22.41,0,0,0,4.33,11.67l5.67,5.67,6-3.67s0.33,29,5.67,36,10,13.67,10,13.67l2,0.67,2.67,18.33,1,30.33s7.67,17,14.33,24.33,8.67,8.33,8.67,8.33a16,16,0,0,1,10.33,3c5.33,3.67,6.67,5.67,6.67,5.67s23.67-18.33,41.33-43.33,17.67-25.33,17.67-25.33l-1.33-8.33-0.67-3.67,1-21s5-13.33,6.67-22.33,2.33-14,2.33-14l1-2s5,7.33,11,2,10.67-20,9.67-23.33-2.67-13.33-2.33-17,2.67-7.67,0-8a45.77,45.77,0,0,0-5-.33l-3.67-3-2.67-18V62.41l-9.67-2-62.33-30-16-8L103.5,26.74,85.17,35.07l-14,21-6.67,13,1,35h0Z" transform="translate(-1 -1)" style="fill:#fde7d8"/><path d="M161.5,286.06l27-49,7-13a116,116,0,0,1-8,33c-7,17-33,27-26,29h0Z" transform="translate(-1 -1)" style="fill:#fff"/><path d="M141.5,64.06s5,14,23,19,17,11,17,11l6,9s2,8,0,13-5,18-2,26-6,45-8,54-23,26-23,26,28-10,36-28a307.5,307.5,0,0,0,12-31s-6-11,3-29,6-25,6-32v-35l-6-7-34-14Z" transform="translate(-1 -1)" style="fill:#fdd9c2"/><path d="M180.25,114.06l2.25-3.5a24.8,24.8,0,0,0-9.25-4.75,44.37,44.37,0,0,0-19-.75c-6,1-8,5-8,5v2.5s2-5.25,12.5-5.75a36.45,36.45,0,0,1,18.75,4.5Z" transform="translate(-1 -1)" style="fill:#fdd9c2"/><path d="M218.5,118.06s-8,4-8,15v7h7v-10Z" transform="translate(-1 -1)" style="fill:#fdd6bb"/><path d="M116.5,227.06s21,12,32,11,29-15,36-20l7-5v-19s-11,17-21,21-24,13-30,14l-6,1Z" transform="translate(-1 -1)" style="fill:#fdd6bb"/><path d="M147.5,101.06s-10,9-7,17,1,24,1,24l2,11-2,6,7-4s3-10,0-17-1-15-1-15a12.28,12.28,0,0,1-2-9C146.5,109.06,147.5,101.06,147.5,101.06Z" transform="translate(-1 -1)" style="fill:#fdd9c2"/><path d="M105.75,103.56A34,34,0,0,0,92,103.31c-6.75,1.5-8,4.75-8,4.75l-0.25,5,8-5.75Z" transform="translate(-1 -1)" style="fill:#fdd9c2"/><path d="M106.17,176.73s8.33,12.33,26.67,11.67,28.67-10.67,28.67-10.67h-4.33a289,289,0,0,1-29,2c-12.67,0-16.33-1.33-16.33-1.33l-5.67-1.67h0Z" transform="translate(-1 -1)" style="fill:#fff"/><path d="M132.25,176.06s-10.5-2.75-18.5-1.5-8.75,1.5-8.75,1.5,9,4,30.75,3,27.5-3,27.5-3-16.5-2.25-21-2.25a11,11,0,0,0-7,2.25h-3Z" transform="translate(-1 -1)" style="fill:#facbbb"/><path d="M105,176.56a27.59,27.59,0,0,0,23.79,18.2c18.83,1.8,33.21-17.08,33.21-17.08a53.56,53.56,0,0,1-31.23,9.66c-18.09-.45-25.77-10.79-25.77-10.79h0Z" transform="translate(-1 -1)" style="fill:#facbbb"/><path d="M90.5,114.81s2.75,5,10.75,6,11.25-4,13.25-3.5,2.75,0,2.75,0-2.25-3.75-10.25-5.5-12.75,1.25-12.75,1.25Z" transform="translate(-1 -1)" style="fill:#fff"/><path d="M174.5,115.56s-8.25-5.75-14.75-4A27.64,27.64,0,0,0,149,117.31l1,1.5s0.25-2.25,2.25-.75,9.75,2.5,14.25,1.5A20.77,20.77,0,0,0,174.5,115.56Z" transform="translate(-1 -1)" style="fill:#fff"/><path d="M98.25,112.31s-1,6.5,4,7.25,6.5-2.25,6.5-2.25l1-4.75a5.5,5.5,0,0,0-4.25-1.25l-2.75.25Z" transform="translate(-1 -1)" style="fill:#bfdff8"/><path d="M158.5,112.31s-1.25,6.5,3.25,7.25,6.5-1.5,6.5-1.5l1-3.5,0.25-2.75-7.75-1Z" transform="translate(-1 -1)" style="fill:#bfdff8"/><path d="M105,99.47s13.78,0.29,12.92-1.72-11.49-8-25.85-8-14.36,9.76-14.36,9.76l3.45,0.29-4.31,1.15-0.57,1.15h4s3.45-4.31,7.47-4.59a19.09,19.09,0,0,1,6,.29s-9.76-4.31-5.74-3.45a20.91,20.91,0,0,1,6.61,2.58s-2.87-4.59-.86-3.16,8.33,4.59,8.33,4.59L105,99.47h0Z" transform="translate(-1 -1)" style="fill:#604d40"/><path d="M117.37,116.41s-4.31-6.61-16.66-5.74-15.79,9.48-13.78,8,6.32-5.74,15.51-6.32a23,23,0,0,1,14.93,4h0Z" transform="translate(-1 -1)" style="fill:#604d40"/><path d="M147.81,118.42s7.18-8.33,16.66-7.75,15.79,8.62,15.79,8.62l-2-.29s-6.61-6.89-13.78-7.18-12.92,4.88-12.92,4.88l-3.73,1.72h0Z" transform="translate(-1 -1)" style="fill:#604d40"/><path d="M147.52,92.29s-0.29,9.76.29,7.47S147.52,92.29,147.52,92.29Z" transform="translate(-1 -1)" style="fill:#6e331f"/><path d="M150.39,91.43s-1.72,11.77-.86,8.33a30.46,30.46,0,0,1,2-5.74l-1.15-2.58h0Z" transform="translate(-1 -1)" style="fill:#604d40"/><path d="M144.37,108.37s-2.58,1.72-3.45,7.47a29.11,29.11,0,0,0,1.15,11.77,19.75,19.75,0,0,1-2.58-11.49C140.06,109.51,144.37,108.37,144.37,108.37Z" transform="translate(-1 -1)" style="fill:#604d40"/><path d="M118.21,150.58s-1.72,3.45,0,6,3.73,2.3,3.73,2.3-2.58.86-4.59-2S118.21,150.58,118.21,150.58Z" transform="translate(-1 -1)" style="fill:#604d40"/><path d="M123.62,158.11c-2.62-.39.1-2.51,2.81-0.15s2.22,3.3,4.93,4.95,3.95,1.18,3.95,1.18-4.19.47-6.17-2.12a11.2,11.2,0,0,0-4.93-3.54Z" transform="translate(-1 -1)" style="fill:#604d40"/><path d="M136,163.25a24.25,24.25,0,0,0,6.89-4.23c3.45-3,4.74-1.52,6.89-1.24l-5.48,1c-3.33,2.16-4,3.75-6.5,4.33-2.67.43-1.8,0.12-1.8,0.12h0Z" transform="translate(-1 -1)" style="fill:#604d40"/><path d="M148,147.56s3.73,3.45,3.16,6.61a6.58,6.58,0,0,1-2.3,4.31s4.59-1.72,3.73-5.74a7.19,7.19,0,0,0-4.59-5.17h0Z" transform="translate(-1 -1)" style="fill:#604d40"/><path d="M85.49,109.8a24.42,24.42,0,0,1,15.51-6c9.19,0,13.78,4.59,13.78,4.59s-6.89-4.31-13.5-3.73a32.51,32.51,0,0,0-11.77,3.45l-4,1.72h0Z" transform="translate(-1 -1)" style="fill:#604d40"/><path d="M84.05,115a37.94,37.94,0,0,1,5.74-6,16.21,16.21,0,0,1,6-3.45l-7.47,5.46L84,115h0Z" transform="translate(-1 -1)" style="fill:#604d40"/><path d="M91.81,116.41a15.38,15.38,0,0,0,9.48,3.73A46.22,46.22,0,0,0,111.34,119s-6.61,3.16-12.35,2S91.81,116.41,91.81,116.41Z" transform="translate(-1 -1)" style="fill:#604d40"/><path d="M157,106.07a26.51,26.51,0,0,1,16.08.57c8,3.16,9.48,6,9.48,6a37.18,37.18,0,0,0-10.91-5.46c-6-1.72-7.18-1.44-7.18-1.44l-7.47.29h0Z" transform="translate(-1 -1)" style="fill:#604d40"/><path d="M180.26,114.11s-5.17-6.89-8.62-7.47,2.87,2.58,2.87,2.58l5.74,4.88h0Z" transform="translate(-1 -1)" style="fill:#604d40"/><path d="M153.55,119.28a48.92,48.92,0,0,0,11.49.29c6.61-.57,9.19-3.73,9.19-3.73a12.24,12.24,0,0,1-10.34,4.88c-6.89-.29-7.75-0.29-7.75-0.29l-2.58-1.15h0Z" transform="translate(-1 -1)" style="fill:#604d40"/><path d="M104.73,175.57s18.09-2,23-.86,6,1.44,6,1.44,6.32-3.45,10.91-2.58,19.24,2,19.24,2L159,176.73s-15.22-2-18.09-2.3-7.75,3.45-7.75,3.45a56.62,56.62,0,0,0-8.9-2.3c-4-.57-13.21-0.29-13.21-0.29l-6.32.29h0Z" transform="translate(-1 -1)" style="fill:#6e331f;fill-opacity:0.6200000047683716"/><path d="M106.45,176.43s6.61,2.87,23.84,3.16,35.9-3.73,35.9-3.73S149.82,181,134,180.74,113.64,179,113.64,179l-7.18-2.58h0Z" transform="translate(-1 -1)" style="fill:#6e331f;fill-opacity:0.8100000023841858"/><path d="M107.6,177s-5.74-.86-3.16,0,4.59,3.73,4.59,3.73L107.59,177h0Z" transform="translate(-1 -1)" style="fill:#6e331f"/><path d="M164.46,176.43l-6,3.45,0.29-2.3,1.15-.57,4.59-.57h0Z" transform="translate(-1 -1)" style="fill:#6e331f"/><path d="M117.37,190.51a28,28,0,0,0,13.21,4.59c8.33,0.86,16.08-4.31,16.08-4.31S142.35,196,131.73,196s-14.36-5.46-14.36-5.46h0Z" transform="translate(-1 -1)" style="fill:#6e331f;fill-opacity:0.550000011920929"/><path d="M158.15,180.45a59.67,59.67,0,0,1-26.71,7.75c-15.22.57-25.56-10.34-25.56-10.34s4.59,10.05,24.41,11.2,33.89-12.35,33.89-12.35l-6,3.73h0Z" transform="translate(-1 -1)" style="fill:#6e331f;fill-opacity:0.5400000214576721"/><path d="M182.27,166.67s0,8.62-2,14.36l-2,5.74s4.88-8.62,4.88-13.21a21.6,21.6,0,0,0-.86-6.89h0Z" transform="translate(-1 -1)" style="fill:#604d40"/><path d="M95.25,167.53a15.81,15.81,0,0,0-1.44,7.18v4.59a28.46,28.46,0,0,1-.86-6.61,6.65,6.65,0,0,1,2.3-5.17h0Z" transform="translate(-1 -1)" style="fill:#604d40"/><path d="M104.3,117.55a3,3,0,1,1,3-3A3,3,0,0,1,104.3,117.55Z" transform="translate(-1 -1)" style="fill:#2f2620"/><path d="M102,115.54a1.29,1.29,0,1,1,1.29-1.29A1.29,1.29,0,0,1,102,115.54Z" transform="translate(-1 -1)" style="fill:#fff"/><path d="M162.88,117a3,3,0,1,1,3-3A3,3,0,0,1,162.88,117Z" transform="translate(-1 -1)" style="fill:#2f2620"/><path d="M160.59,115a1.29,1.29,0,1,1,1.29-1.29A1.29,1.29,0,0,1,160.59,115Z" transform="translate(-1 -1)" style="fill:#fff"/><path d="M147.23,115s-1.44,1.44-.29,5.17a26.57,26.57,0,0,0,3.16,6.61s-4.31-2.87-4.31-7.47,1.44-4.31,1.44-4.31h0Z" transform="translate(-1 -1)" style="fill:#604d40"/><path d="M70.27,127.61a47.84,47.84,0,0,0,0-7.75c-0.29-5.74,1.72-8,1.72-8s-4.31-11.49-3.45-21.54S67.1,66.44,72.27,63.86c4-2,8.9-9.19,11.77-15.79C94.67,24.81,99,37.44,105,36c0,0,.29-8.62,12.06-8S128,38.88,118.78,44.63,106.72,56.4,106.72,61.86A25,25,0,0,0,109.3,72.2s-0.29-8.62,2-13.5a8.53,8.53,0,0,1,6.61-5.17A7,7,0,0,0,113,60.14a84.11,84.11,0,0,0,0,9.48s4-7.75,6.32-9.48S149.8,42,142.91,27.69,115.34,11,109.6,13.33,103,19.65,103,19.65s-13.78-1.72-18.67,5.17-2,10.63-5.74,11.77-8.62-4-12.35,6-6.89,12.92-6.89,12.92l4-1.15s-3.73,6.61-2,14.07a31.17,31.17,0,0,1,0,13.78l1.72-1.72a86.49,86.49,0,0,0,0,15.79c0.86,6.89,3.45,10.34,2.58,11.77s3.73,9.76,3.73,9.76l0.86,9.76h0Z" transform="translate(-1 -1)" style="fill:#604d40"/><path d="M99.85,57A29,29,0,0,1,112.2,42.6c9.19-5.17,10.91-8.62,9.48-13.78s-3.45-6-3.45-6l8,6s4.31,10.63-5.74,14.65-13.21,6-15.79,11.2a95.47,95.47,0,0,0-4.88,13.21l0.57-7.18-1.15,1.15L99.85,57h0Z" transform="translate(-1 -1)" style="fill:#604d40"/><path d="M126.56,73.33s-4.31-3.45-.57-15.22S136,42.32,136,42.32s3.16-16.08-6.32-19.82S107,19.92,107,19.92s10.34-10.34,17.8-12.35,18.95-2,22.69.29,12.06-2,19.53-.29S183.13,13,183.71,17.62s13.8,4.77,25.46,15.11c11.33,10.33,18,28,14.67,32L222.19,61s2.31,12.74.31,11.41c-2-1-1.46-4.23-1.46-4.23l-0.2,9.56-3-4.68s1.62,11.35,0,16.68c-1.67,5-2.83,8.88-1.1,14.05s4,11.77,4,11.77-4.59-.57-6.32-2.3,0.29,1.44-.57,6.32a20.2,20.2,0,0,1-4.59,8.9s2-1.15-1.72-4.59-4.88-4.31-4.88-4.31,5.46-11.77,2.3-24.7l-3.16-12.92s3.73-1.72,3.16-5.74-1.44-6.61-4-6,3.16,4.59,0,3.45a80.83,80.83,0,0,0-8.9-2.3l6.61,5.17s-6,2.87-14.93-.29S171.1,69.89,172.54,71s6,5.17,10.05,6.61,4,1.72,4,1.72-8.33,6-19.53.57-19.53-13.78-21.54-25.56-1.72-14.93-1.72-14.93S130.9,52.37,128.31,63s3.45,15.22,3.45,15.22l-5.17-4.88h0Z" transform="translate(-1 -1)" style="fill:#604d40"/><path d="M158.15,85.68s-17.52,3.16-26.13-19,8.9-41.35,8.9-41.35-8.62,28.14-.86,42.5,19.82,13.78,19.82,13.78,0,1.15-5.17,1.15-6-.86-6-0.86l9.48,3.73h0Z" transform="translate(-1 -1)" style="fill:#604d40"/><path d="M165,81.37s-16.66-2.3-26.13-17.8a41.25,41.25,0,0,1-4.59-31.3L147.24,30s-3.45,24.12,2,36.18S165,81.37,165,81.37h0Z" transform="translate(-1 -1)" style="fill:#604d40"/><path d="M102.72,66.73s-0.57-11.2,7.47-19.53a25.64,25.64,0,0,1,18.38-7.75s-18.67,9.48-21.83,17.8-2,14.65-2,14.65l-2-5.17h0Z" transform="translate(-1 -1)" style="fill:#604d40"/><path d="M139.48,84.25S126.27,74.49,128,59.55s7.75-18.09,7.75-18.09-8,19.24-2.3,30.73,10.63,12.92,10.63,12.92Z" transform="translate(-1 -1)" style="fill:#604d40"/><path d="M110.19,28.53s6-2.58,8,2.58-1.44,8-4.31,10.63-2.58,3.16-2.58,3.16l23.55-6s4-16.94-3.16-19-21.25.86-21.25,0.86l-4.59,1.15,4.31,6.61h0Z" transform="translate(-1 -1)" style="fill:#604d40"/><path d="M66,121.87a57.9,57.9,0,0,0-2.87-8c-1.72-3.73-2-3.73-2-3.73V113s4.31,8.62,4.59,11.2L66,126.75v-4.88Z" transform="translate(-1 -1)" style="fill:#604d40"/><path d="M64.53,105.5a3,3,0,0,0-3.45,2c-0.86,2.58.86,9.48-.57,13.78S55.63,137.37,57.64,144s9.48,16.37,11.49,14.36a21.45,21.45,0,0,1,4-3.16l-0.29-.86s-4.59,4-6.32,1.72-8.33-6.32-8-17.23S61.66,123,61.66,123a60.21,60.21,0,0,0,.86-7.18c0-2.3-1.72-10.63,2-10.34a4.2,4.2,0,0,1,4,3.73l-1.44-6.61-2.58,2.87h0Z" transform="translate(-1 -1)" style="fill:#604d40"/><path d="M63.38,133.64a31.35,31.35,0,0,0,.29,6.89c0.57,3.16,2.58-.57,4.31,1.15s2.3,6.32,2.3,6.32,0-6.89-2-8a5.4,5.4,0,0,0-3.45-.86Z" transform="translate(-1 -1)" style="fill:#604d40"/><path d="M219.31,108.37s4.59-1.72,4.31,2-2.87,6.89-.29,15.22-0.86,19.24-4.59,26.42-8.62,8-11.2,6.61-4.31-2.3-4.31-2.3l0.86-2.3s2.58,5.46,7.75,3.73S223,140.24,223,135.65s-2.87-14.93-2.58-18.38,3.45-8.33,1.15-8.33-4.59,2.3-4.59,2.3l-1.44-3.73,3.73,0.86h0Z" transform="translate(-1 -1)" style="fill:#604d40"/><path d="M218.45,115.55a34.19,34.19,0,0,0-6.32,10.34,25,25,0,0,0-2,12.35l0.86,7.47s2.58-4.31,4.88-4,1.72,4,1.72,4,1.72-6.32-1.44-6-2,1.72-3.45.57-0.57-11.77.57-15.22,4.59-8,4.59-6.32,1.15,7.75,1.15,7.75v-7.18l-0.57-3.73h0Z" transform="translate(-1 -1)" style="fill:#604d40"/><path d="M70.56,114.69s-1.44,15.79-.57,23.26,5.17,21.83,5.17,21.83S70.85,140,70.57,132.5s0-17.8,0-17.8h0Z" transform="translate(-1 -1)" style="fill:#604d40"/><path d="M73.43,155.75s-0.57,29.58,10.34,41.64,16.66,15.79,25,22.69,10.34,7.75,14.07,9.48,13.21,0.86,13.21.86-13.78-.57-19.53-6-29.87-21.25-35.61-32.74-7.47-35.9-7.47-35.9h0Z" transform="translate(-1 -1)" style="fill:#604d40"/><path d="M208.11,125s-0.57,13.5-2.3,21A91.26,91.26,0,0,1,201.22,160s6.32-10.63,7.18-21,1.44-19.53,1.44-19.53L208.12,125h0Z" transform="translate(-1 -1)" style="fill:#604d40"/><path d="M203.52,148.57s-3.16,22.11-5.74,30.73-9.48,23.55-18.09,29.29S159.3,219.79,151,225.82s-16.08,4.31-16.08,4.31,4.59,4.59,16.08-3.16,31.59-16.37,36.47-24.12,9.76-13.78,12.92-28.72A136.65,136.65,0,0,0,203.52,148.57Z" transform="translate(-1 -1)" style="fill:#604d40"/><path d="M130.29,269.19s4.88,4.31,7.47,3.73,8.9-7.18,8.9-7.18-6,8.9-9.19,9.48-5.46-2.3-5.46-2.3l-1.72-3.73h0Z" transform="translate(-1 -1)" style="fill:#604d40"/><path d="M101.57,215.2a50.79,50.79,0,0,1,8,11.2,75.66,75.66,0,0,1,4.31,9.19s-3.16-12.35-7.47-17.52a38.6,38.6,0,0,0-10.34-8.33Z" transform="translate(-1 -1)" style="fill:#604d40"/><path d="M177.39,183.9s-3.16,8.33-5.17,10.91l-2,2.58,7.18-13.5h0Z" transform="translate(-1 -1)" style="fill:#604d40"/><path d="M194,191.65s-2.58,18.95-1.44,24.12,1.72,8.33,1.72,8.33l-1.15,2a55.52,55.52,0,0,1-1.72-21.54c1.44-11.77,2.58-12.92,2.58-12.92h0Z" transform="translate(-1 -1)" style="fill:#604d40"/><path d="M91.81,206s2.3,20.1,2.87,32.45l0.57,12.35L97,256s-1.44-22.11-3.16-36.76-2-13.21-2-13.21h0Z" transform="translate(-1 -1)" style="fill:#604d40"/><path d="M98.47,113.25s-0.11,4.48,3.1,5.74a5.62,5.62,0,0,0,7.24-2.3,6.12,6.12,0,0,0,.34-4.48l0.69-.23s0.57,5.51-2.3,7-5.63,1.49-8.16-1-1.61-6.32-1.61-6.32l1.15-.23-0.46,1.84h0Z" transform="translate(-1 -1)" style="fill:#604d40"/><path d="M169.12,113.25s0.11,4.48-3.1,5.74a5.62,5.62,0,0,1-7.24-2.3,6.12,6.12,0,0,1-.34-4.48l-0.69-.23s-0.57,5.51,2.3,7,5.63,1.49,8.16-1,1.61-6.32,1.61-6.32l-1.15-.23,0.46,1.84h0Z" transform="translate(-1 -1)" style="fill:#604d40"/><path d="M93.24,225.82s-6,3.16-8.62,33a456.87,456.87,0,0,0-1.72,51.69,162.65,162.65,0,0,1,19.53-19.24c10.91-8.9,18.09-4.88,18.09-4.88l1.44,1.44s-6.89-2-17.8,4.31-22.69,21.54-22.69,21.54-1.15-37.33,2.3-58.3,2.87-19.82,5.46-26.42,4.59-7.47,4.59-7.47l-0.57,4.31h0Z" transform="translate(-1 -1)" style="fill:#604d40"/><path d="M94.39,235.87s-4.88,1.72.57,19.24S118.8,286.7,118.8,286.7a21,21,0,0,1,10.05,3.45c4.31,3.16,4.88,5.17,4.88,5.17l2.3-1.72s-6.61-6.32-12.06-7.47L118.51,285S98.12,266.6,95.82,250.81s-1.15-18.95-1.15-18.95l-0.29,4h0Z" transform="translate(-1 -1)" style="fill:#604d40"/><path d="M128,301.64a127.17,127.17,0,0,1,14.65-13.21c9.19-7.18,47.38-52.55,49.11-59.73a31.57,31.57,0,0,0,.57-12.64L192,214.34s6.32,6,1.15,15.79-29,38.19-36.76,46.24S136.32,295,136.32,295L128,301.65h0Z" transform="translate(-1 -1)" style="fill:#604d40"/><path d="M192.61,208.59a13.77,13.77,0,0,1,4.88,7.75c1.44,5.46,5.74,11.49,7.18,13.78s4,5.74,4,5.74L209,239s-7.75-9.19-10.34-16.08-3.45-10.05-3.45-10.05l-2.58-4.31h0Z" transform="translate(-1 -1)" style="fill:#604d40"/><path d="M202.08,225s7.75,3.45,8,12.35-5.17,36.47-14.36,56S184,314.56,184,314.56s-4.59-12.35-15.22-20.68-22.69-3.73-29.29.57-11.49,8-11.49,8,11.77-14.65,28.14-14.36,27,21,27,21l1.15,2a150.72,150.72,0,0,0,19.24-45.66c6.61-27.28,6-27.86,2.87-34.17s-4-3.73-4-3.73L202.07,225h0Z" transform="translate(-1 -1)" style="fill:#604d40"/><path d="M85.78,235S70,245.92,58.5,260.28s-17.8,32.45-17.8,32.45S49,293,51.61,296.46a26.64,26.64,0,0,1,3.45,5.74l1.72-.86s-3.73-6.61-6.89-8.62a10.35,10.35,0,0,0-6.61-1.44s8.62-23,21.83-37,23-19,23-19l-2.3-.29v0Z" transform="translate(-1 -1)" style="fill:#604d40"/><path d="M75.15,287.57s-13.5,7.75-21.25,14.93a135.19,135.19,0,0,0-10.63,10.63L68.54,293.6Z" transform="translate(-1 -1)" style="fill:#604d40"/><path d="M199.21,220.94s14.07,3.45,20.1,9.48,10.34,16.66,10.34,16.66-8-13.78-14.36-17.8-16.08-5.74-16.08-5.74v-2.6Z" transform="translate(-1 -1)" style="fill:#604d40"/><path d="M223.91,236.16s11.2,6,14.36,9.76,3.16,4.88,3.16,4.88,4,27.28,4,32.74,0.29,6,.29,6l-24.12,11.49-0.29-1.44L244,288.71l-4.59-40.2-9.19-7.18-6.32-5.17h0Z" transform="translate(-1 -1)" style="fill:#604d40"/><path d="M200.65,283.26a168.39,168.39,0,0,1,22.11,17.52c10.91,10.34,12.64,12.64,12.64,12.64l-25.27-22.11-9.48-8h0Z" transform="translate(-1 -1)" style="fill:#604d40"/><path d="M83.19,300.2A81.06,81.06,0,0,1,94.1,284.69c6.61-7.18,11.2-8.9,11.2-8.9L89.22,292.73Z" transform="translate(-1 -1)" style="fill:#604d40"/><path d="M84.05,286.42s4.31-6.61,9.19-12.92,6.61-6.61,6.61-6.61l-7.47,9.48Z" transform="translate(-1 -1)" style="fill:#604d40"/><path d="M95.25,259.14s1.44-2.87-4,5.17-7.18,12.64-7.18,12.64l-0.29,2.58,7.18-12.35Z" transform="translate(-1 -1)" style="fill:#604d40"/><path d="M92.67,250.81s-1.15-.57-3.73,2.87S83.77,264,83.77,264l5.74-9.48,3.16-3.73h0Z" transform="translate(-1 -1)" style="fill:#604d40"/><path d="M93.53,228.69s-5.74,8-2.58,27.57a98.52,98.52,0,0,0,12.64,34.17l-1.72,2s-10.63-20.68-12.35-38.77S91,231.27,91,231.27l2.58-2.58h0Z" transform="translate(-1 -1)" style="fill:#604d40"/><path d="M95.54,295.32L93.82,297a148.05,148.05,0,0,1-6.89-30.44c-1.72-16.08.57-25.85,0.57-25.85s-1.15,22.4,2.3,36.47,5.74,18.09,5.74,18.09h0Z" transform="translate(-1 -1)" style="fill:#604d40"/><path d="M89.22,301.92l-1.44,2s-3.45-17.52-3.45-26.42v-8.9s0.57,16.94,2.3,23.55l1.72,6.61,0.86,3.16h0Z" transform="translate(-1 -1)" style="fill:#6e331f"/><path d="M109.33,285.27l-7.47-16.37,2.58,2,7.47,13.78-2.58.57h0Z" transform="translate(-1 -1)" style="fill:#604d40"/><path d="M153.84,280.67s12.35,0.57,20.68,10,10.63,18.09,10.63,18.09-8-16.37-17.52-22.11-13.78-6-13.78-6h0Z" transform="translate(-1 -1)" style="fill:#6e331f"/><path d="M163,271.48s12.35,2.3,18.95,12.35,7.47,15.51,7.47,15.51-8-16.08-13.78-20.68A52.68,52.68,0,0,0,163,271.48h0Z" transform="translate(-1 -1)" style="fill:#604d40"/><path d="M171.36,262s12.64,6.32,17.52,15.51,6,12.35,6,12.35-7.47-13.21-12.06-17.8a36.48,36.48,0,0,0-9.76-6.89L171.37,262h0Z" transform="translate(-1 -1)" style="fill:#604d40"/><path d="M177.39,253.39a38.19,38.19,0,0,1,14.93,15.51c5.74,10.91,5.46,12.06,5.46,12.06s-8-14.93-12.35-19.24-8-8.33-8-8.33h0Z" transform="translate(-1 -1)" style="fill:#604d40"/><path d="M184.57,245.06s8.33,8.33,12.35,15.51,6,11.49,6,11.49l-14.36-21-4-6h0Z" transform="translate(-1 -1)" style="fill:#604d40"/><path d="M189.74,236.16s8.9,11.49,11.77,16.08,4,6.89,4,6.89v1.15l-13.78-19.53-2-4.59h0Z" transform="translate(-1 -1)" style="fill:#604d40"/><path d="M194.62,229.56l12.92,19.24,0.29,1.72-13.21-21h0Z" transform="translate(-1 -1)" style="fill:#6e331f"/><path d="M196.91,219.51s4.59,6.89-5.74,31.3a264.17,264.17,0,0,1-22.11,41.64l1.44,2s20.1-35.9,25-50.26,4-19.82,4-19.82l-2.58-4.88h0Z" transform="translate(-1 -1)" style="fill:#604d40"/><path d="M202.95,232.43s1.15,5.46-7.47,27.86a338.86,338.86,0,0,1-18.67,40.2l0.57,1.15s18.09-33,22.69-50S205,235.88,205,235.88l-2-3.45h0Z" transform="translate(-1 -1)" style="fill:#604d40"/><path d="M159,287.57l29-50.26,2.58-3.45-29,55.42L159,287.56h0Z" transform="translate(-1 -1)" style="fill:#604d40"/><path d="M206.39,252.24s-11.2,23.26-17.23,33.89S180,303.65,180,303.65l0.57,0.29,22.69-41.35,2-5.46,1.15-4.88h0Z" transform="translate(-1 -1)" style="fill:#6e331f"/><path d="M150.68,287.28L147.52,289,155,276.65l3.45-2-7.75,12.64h0Z" transform="translate(-1 -1)" style="fill:#604d40"/><path d="M161.09,101.47s-13.78.29-12.92-1.72,11.49-8,25.85-8,14.36,9.76,14.36,9.76l-3.45.29,4.31,1.15,0.57,1.15h-4s-3.45-4.31-7.47-4.59a19.09,19.09,0,0,0-6,.29s9.76-4.31,5.74-3.45a20.91,20.91,0,0,0-6.61,2.58s2.87-4.59.86-3.16-8.33,4.59-8.33,4.59l-2.87,1.15h0Z" transform="translate(-1 -1)" style="fill:#604d40"/><path d="M139.3,128.46s1.8,8.6,1.4,13.4l-0.4,4.8s2-7.4,1.2-11.2l-0.8-3.8Z" transform="translate(-1 -1)" style="fill:#604d40"/><path d="M130,126.46s-1.62,10.44-1.26,16.27l0.36,5.83s-1.8-9-1.08-13.6l0.72-4.61Z" transform="translate(-1 -1)" style="fill:#604d40"/><path d="M113.5,104.06s7,5,5,13-3,11-3,11,11-7,9-15l-2-8Z" transform="translate(-1 -1)" style="fill:#fdd9c2"/><path d="M138,189.56a37.37,37.37,0,0,1-9.75,0c-4.5-.75-5.5-0.25-5.5-0.25a15.78,15.78,0,0,0,9,3,17.57,17.57,0,0,0,10-2.75H138Z" transform="translate(-1 -1)" style="fill:#fff;fill-opacity:0.7300000190734863"/><path d="M104.5,161.06s-9,3.5-9,11,2,9,2,9-1.5-9,2.5-13.5S104.5,161.06,104.5,161.06Z" transform="translate(-1 -1)" style="fill:#fdd6bb"/><path d="M169,165.06s4.5,5,4,10.5-1.5,7.5-1.5,7.5,6-8,4.5-13.5S169,165.06,169,165.06Z" transform="translate(-1 -1)" style="fill:#fdd6bb"/><path d="M242,252.56s25.45,14.14,41.21,28.29S304,301.56,304,301.56s-24.73-24.75-41.57-34.86S242,252.56,242,252.56Z" transform="translate(-1 -1)" style="fill:#604d40"/><path d="M74,245.56s-37.12,19-51.14,32S1,297.56,1,297.56s21.86-19.5,41.66-32,28.87-18.5,28.05-15.5l-0.82,3,4.12-7.5h0Z" transform="translate(-1 -1)" style="fill:#604d40"/><path d="M107.83,19.06s-7-6.67-17-5.33S69.5,29.06,66.83,34.4s-7,10.67-4.67,10.67a22.8,22.8,0,0,0,4-.33l1.33,6.33,15.67-16,24.67-16h0Z" transform="translate(-1 -1)" style="fill:#604d40"/><path d="M102.17,14.73s5-7,11-8S129.5,0.4,136.84,1.06s22,4,25,5.67a9.61,9.61,0,0,1,4,5.33l-22,7.33-38,3.33-3.67-8h0Z" transform="translate(-1 -1)" style="fill:#604d40"/><path d="M196.25,24.56s-10-9-14.5-10a39.54,39.54,0,0,0-5.25-1l5.5,6a19.92,19.92,0,0,1,8.25,2C194,23.56,196.25,24.56,196.25,24.56Z" transform="translate(-1 -1)" style="fill:#604d40"/><path d="M106.25,106.31s-3-1.25-8.5,0S92,108.56,92,108.56s0,1.25,5.5.75,8-.5,8-0.5Z" transform="translate(-1 -1)" style="fill:#fef5ee"/><path d="M171,108.56a23.64,23.64,0,0,0-10.25-.75c-6.25.75-4.75,2.75-4.75,2.75s6.75-2,10.5-1S171,108.56,171,108.56Z" transform="translate(-1 -1)" style="fill:#fef5ee"/></svg>