<?xml version="1.0" standalone="no"?>
<!DOCTYPE svg PUBLIC "-//W3C//DTD SVG 20010904//EN"
 "http://www.w3.org/TR/2001/REC-SVG-20010904/DTD/svg10.dtd">
<svg version="1.0" xmlns="http://www.w3.org/2000/svg"
 width="240.000000pt" height="240.000000pt" viewBox="0 0 240.000000 240.000000"
 preserveAspectRatio="xMidYMid meet">
<metadata>
Created by potrace 1.11, written by Peter Selinger 2001-2013
</metadata>
<g transform="translate(0.000000,240.000000) scale(0.100000,-0.100000)"
fill="#000000" stroke="none">
<path d="M2020 2366 c-20 -12 -175 -106 -345 -209 -171 -104 -319 -194 -330
-200 -11 -7 -42 -26 -70 -43 -27 -17 -149 -91 -270 -164 -304 -183 -485 -293
-585 -355 l-85 -52 -3 -156 -3 -156 148 -87 c82 -48 164 -97 183 -109 44 -28
135 -82 179 -107 37 -21 190 -112 379 -225 68 -40 127 -73 133 -73 5 0 9 -3 9
-7 0 -5 10 -13 23 -19 12 -6 130 -74 261 -152 131 -78 243 -142 247 -142 5 0
9 -4 9 -8 0 -5 17 -16 38 -26 20 -10 56 -31 80 -47 l42 -28 1 127 c0 138 0
590 -1 609 0 6 -6 13 -13 15 -20 5 -756 442 -757 449 0 3 48 36 108 73 112 70
214 135 495 312 146 93 167 110 167 133 3 138 1 663 -2 665 -1 2 -19 -7 -38
-18z"/>
</g>
</svg>
